<?xml version="1.0" encoding="UTF-8"?>
<svg xmlns="http://www.w3.org/2000/svg" xmlns:xlink="http://www.w3.org/1999/xlink" id="Lager_1" version="1.1" viewBox="0 0 1658.9 491.9">
  <defs>
    <style>
      .st0 {
        fill: #7EB2D4;
      }
      .st1 {
        fill: url(#Namnlos_overtoning_5);
      }
    </style>
    <linearGradient id="Namnlos_overtoning_5" data-name="Namnlos overtoning 5" x1="76.4" y1="415.4" x2="346.4" y2="145.4" gradientUnits="userSpaceOnUse">
      <stop offset="0" stop-color="#019078"></stop>
      <stop offset="1" stop-color="#7EB2D4"></stop>
    </linearGradient>
  </defs>
  <g>
    <path class="st1" d="M203.6,408.8L23.2,246.3c-3.3,12-5.2,23.9-5.2,35.8,0,118,99.8,180.1,185.6,183.6v-57ZM203.6,309.6L56.4,177c-10.5,15.7-19.4,31.9-26.1,48.3l173.2,156v-71.7ZM203.6,216l-103.8-93.5c-11,11.9-21.6,24.6-31.5,37.7l135.3,121.8v-66.1ZM335.3,182.7s70.1,87.7,45.2,160.6c-24.9,72.8-144.9,80.9-144.9,80.9,0,0,98.4-25,118.2-100.7,18.6-71.4-18.5-140.7-18.5-140.7M404.4,282.1c0-121.5-188.6-256-193.2-256s-50,33.2-97.4,81.5l89.8,80.8v-110.8l10.4-17,9.7,17v387.8c86.7-5.5,180.7-67.5,180.7-183.4"></path>
    <path class="st0" d="M618.3,280.9c-21.3,10.9-37.5,15.2-60.2,15.2-59.5,0-89.1-38.3-89.1-77.5s33.4-78.4,92-78.4,40.4,4.5,55.5,13.4v33.9c-16.8-9.4-33.9-15.6-52.7-15.6-32.5,0-55.4,19.2-55.4,46.1s22.7,46.6,54.5,46.6,33.4-6.2,55.4-16.7v33.2Z"></path>
  </g>
  <path class="st0" d="M809.3,294.1h-41.1l-12.6-30.1h-68.5l-11.5,30.1h-40.4l61.7-152h44.2l68,152ZM719.7,178.4l-22.5,59h47.1l-24.7-59Z"></path>
  <polygon class="st0" points="946.9 294.1 830.2 294.1 830.2 142.1 868.3 142.1 868.3 266.2 946.9 266.2 946.9 294.1"></polygon>
  <polygon class="st0" points="1085 294.1 968.2 294.1 968.2 142.1 1006.4 142.1 1006.4 266.2 1085 266.2 1085 294.1"></polygon>
  <rect class="st0" x="1107.6" y="142.1" width="38.2" height="152"></rect>
  <g>
    <path class="st0" d="M1242.1,142.1c55.9,0,84.6,34.5,84.6,76.2s-27.8,75.8-88.9,75.8h-63.3v-152h67.6ZM1212.7,266.2h24.9c38.4,0,49.8-25.8,49.8-48.1s-14.1-48.1-50.3-48.1h-24.5v96.3Z"></path>
    <path class="st0" d="M1502,142.1v86.2c0,50.4-34.6,67.7-76.5,67.7s-76.6-20.5-76.6-67.5v-86.5h38.2v87.4c0,21.8,15.9,35,37.9,35s38.8-10.5,38.8-37.7v-84.7h38.2Z"></path>
    <path class="st0" d="M1633.4,181.6c-22.2-9.8-35.5-13.6-48.5-13.6s-22.4,4.9-22.4,12.5c0,23,77.9,16.5,77.9,69.5s-24.7,46.1-58.8,46.1-40-6.9-55.2-14.7v-32.8c22,14.5,35.5,19.6,52.3,19.6s22.4-5.1,22.4-14c0-25-77.9-15.8-77.9-70.4s22.9-43.7,58.4-43.7,32.5,3.6,51.9,11.8v29.6Z"></path>
    <path class="st0" d="M574.7,408.7h8.5v-17.7c1.2.3,2.6.3,4.2.3,6.1,0,11.3-1.7,14.8-5.1,2.6-2.5,4-6.1,4-10.6s-1.8-8.1-4.6-10.4c-3-2.5-7.5-3.8-13.8-3.8s-9.9.4-13.1,1v46.2ZM583.2,368.5c.9-.2,2.6-.4,4.9-.4,5.9,0,9.5,2.8,9.5,7.9s-3.9,8.6-10.3,8.6-3.1,0-4.2-.4v-15.7ZM621.3,408.7h8.5v-19.3h4.3c4.9.1,7,2.1,8.4,8.2,1.3,5.8,2.4,9.7,3.1,11.1h8.8c-.9-1.8-2.2-7.2-3.7-13.1-1.1-4.5-3.1-7.8-6.5-9v-.2c4.5-1.5,8.6-5.6,8.6-11.7s-1.5-7.3-4-9.5c-3.2-2.6-7.7-3.8-14.5-3.8s-9.7.4-12.9,1v46.2ZM629.8,368.4c.8-.2,2.6-.4,5.3-.4,5.6,0,9.1,2.4,9.1,7.5s-3.5,7.7-9.3,7.7h-5.1v-14.8ZM688.9,409.5c12.8,0,22.3-9,22.3-24.7s-8.1-23.7-21.7-23.7-22.3,10.2-22.3,24.5,8.3,23.9,21.6,23.9h0ZM689.1,402.6c-8.2,0-12.9-7.9-12.9-17.2s4.4-17.5,13-17.5,12.9,8.3,12.9,17.2-4.7,17.4-12.9,17.4h0ZM727.6,408.7h8.5v-20h17.2v-7h-17.2v-12.9h18.6v-7h-27.1v46.9ZM770.4,408.7h8.5v-20h17.2v-7h-17.2v-12.9h18.6v-7h-27.1v46.9ZM811.3,406.5c2.6,1.5,7.7,2.9,12.7,2.9,12,0,17.7-6.5,17.7-14s-3.9-10.8-12-13.9c-6.3-2.4-9-4-9-7.7s2.3-5.6,7.7-5.6,7.6,1.3,9.4,2.2l2-7c-2.4-1.2-6.1-2.3-11.2-2.3-10.2,0-16.6,5.8-16.6,13.5s4.9,10.9,12.7,13.6c5.9,2.2,8.3,4.2,8.3,7.8s-3.1,6.4-8.5,6.4-8.6-1.4-11.3-3l-1.9,7.1ZM882.5,408.7h8.5v-17.7c1.2.3,2.6.3,4.2.3,6.1,0,11.3-1.7,14.8-5.1,2.6-2.5,4-6.1,4-10.6s-1.8-8.1-4.6-10.4c-3-2.5-7.5-3.8-13.8-3.8s-9.9.4-13.1,1v46.2ZM890.9,368.5c.9-.2,2.6-.4,4.9-.4,5.9,0,9.5,2.8,9.5,7.9s-3.9,8.6-10.3,8.6-3.1,0-4.2-.4v-15.7ZM950.4,395.4l4.2,13.3h9.2l-15.2-46.9h-10.9l-15,46.9h8.8l4-13.3h14.9ZM936.9,389l3.6-11.6c.8-2.8,1.5-6,2.2-8.8h.1c.7,2.7,1.5,5.9,2.4,8.8l3.7,11.6h-12ZM943.3,344.9c-4.8,0-7.6,3-7.6,6.6s2.9,6.5,7.6,6.5,7.5-2.9,7.5-6.5-2.6-6.6-7.4-6.6h0ZM943.2,347.9c2,0,3.3,1.6,3.3,3.5s-1.2,3.4-3.3,3.4-3.2-1.7-3.2-3.3,1.1-3.5,3.1-3.5h0ZM1023.9,408.7l16.2-46.9h-9.1l-6.8,21.4c-1.8,5.7-3.6,11.4-4.8,17h-.1c-1.2-5.6-2.8-11.1-4.6-17l-6.4-21.3h-9.3l15.2,46.9h9.8ZM1074.8,395.4l4.2,13.3h9.2l-15.2-46.9h-10.9l-15,46.9h8.8l4-13.3h14.9ZM1061.3,389l3.6-11.6c.8-2.8,1.5-6,2.2-8.8h.1c.7,2.7,1.5,5.9,2.4,8.8l3.7,11.6h-12ZM1107.8,408.7h8.6v-39.7h13.5v-7.2h-35.4v7.2h13.3v39.7ZM1155.3,408.7h8.5v-39.7h13.5v-7.2h-35.4v7.2h13.3v39.7ZM1217.8,381h-17.7v-12.1h18.7v-7h-27.3v46.9h28.3v-7h-19.7v-13.8h17.7v-7ZM1244.2,408.7v-16.8c0-7.7-.1-13.9-.5-20h.3c2.3,5.2,5.3,10.9,8.3,16.1l12.2,20.6h8.9v-46.9h-7.9v16.3c0,7.2.1,13.2.8,19.4h-.1c-2.2-5-4.9-10.4-8-15.7l-12.1-20.1h-9.8v46.9h7.9ZM1292.3,408.7h8.5v-19.3h4.3c4.9.1,7,2.1,8.4,8.2,1.2,5.8,2.4,9.7,3.1,11.1h8.8c-.9-1.8-2.2-7.2-3.7-13.1-1.1-4.5-3.1-7.8-6.5-9v-.2c4.4-1.5,8.5-5.6,8.5-11.7s-1.5-7.3-4-9.5c-3.2-2.6-7.7-3.8-14.5-3.8s-9.7.4-12.9,1v46.2ZM1300.8,368.4c.8-.2,2.6-.4,5.3-.4,5.6,0,9.1,2.4,9.1,7.5s-3.5,7.7-9.3,7.7h-5.1v-14.8ZM1367.3,381h-17.7v-12.1h18.7v-7h-27.3v46.9h28.3v-7h-19.8v-13.8h17.7v-7ZM1393.8,408.7v-16.8c0-7.7-.1-13.9-.5-20h.3c2.3,5.2,5.4,10.9,8.3,16.1l12.2,20.6h8.9v-46.9h-7.9v16.3c0,7.2.1,13.2.8,19.4h-.1c-2.2-5-4.9-10.4-8-15.7l-12.1-20.1h-9.8v46.9h7.9ZM1441.9,408.7h8.5v-46.9h-8.5v46.9ZM1477,408.7v-16.8c0-7.7-.1-13.9-.5-20h.3c2.3,5.2,5.4,10.9,8.3,16.1l12.2,20.6h8.9v-46.9h-7.9v16.3c0,7.2.1,13.2.8,19.4h-.1c-2.2-5-4.9-10.4-8-15.7l-12.1-20.1h-9.8v46.9h7.9ZM1562.6,382.8h-16.5v6.7h8.3v11.8c-1.1.5-3.3.9-6.5.9-9.7,0-16.3-6.3-16.3-17s7-16.8,17-16.8,8.1.8,10.6,2l1.9-6.9c-2.2-1-6.7-2.2-12.4-2.2-15.5,0-26,9.5-26.1,24.3,0,7.1,2.4,13.3,6.5,17.2,4.4,4.2,10.5,6.3,18.4,6.3s12-1.5,15-2.6v-23.7Z"></path>
  </g>
</svg>
